<?xml version="1.0" standalone="no"?>
<svg xmlns="http://www.w3.org/2000/svg" viewBox="0 0 107.786 36" width="107.786" height="36"><g fill="#000000" color="#000000" transform="translate(0 6) scale(0.4705883)"><svg width="44.0" height="51.0" x="0.0" y="0.0" viewBox="0 0 44 51"><path fill="currentColor" fill-rule="evenodd" d="M22 0L0 12.571v25.143l22 12.572 21.994-12.568.006-.01V12.571L22 0zM6.354 13.778L22 4.84l15.645 8.938-4.231 2.419L22 9.678l-11.411 6.52-4.235-2.42zm17.764 10.158v-8.21L31.3 19.83v8.208l-7.182-4.101zm-11.416-4.107l7.18-4.102v8.207l-7.18 4.103v-8.208zm11.416 19.57l11.415-6.522V19.826l4.233-2.42v17.89l-15.648 8.941v-4.838zM4.233 35.296v-17.89l4.233 2.42v13.049l11.416 6.524v4.838l-15.649-8.94zm10.583-3.63l7.182-4.104 7.183 4.104L22 35.768l-7.184-4.102z"></path></svg></g><path fill="#000000" fill-rule="nonzero" d="M6.05 16.97L3.34 16.97Q3.24 16.97 3.24 16.85L3.24 16.85L3.24 3.17L0.12 3.17Q0 3.17 0 3.05L0 3.05L0.02 0.36Q0.02 0.26 0.12 0.26L0.12 0.26L9.24 0.26Q9.36 0.26 9.36 0.36L9.36 0.36L9.36 3.05Q9.36 3.17 9.26 3.17L9.26 3.17L6.12 3.17L6.14 16.85Q6.14 16.97 6.05 16.97L6.05 16.97ZM18.38 16.97L10.63 16.97Q10.54 16.97 10.54 16.85L10.54 16.85L10.56 0.36Q10.56 0.26 10.66 0.26L10.66 0.26L18.36 0.26Q18.46 0.26 18.46 0.38L18.46 0.38L18.46 3.07Q18.46 3.17 18.36 3.17L18.36 3.17L13.44 3.17L13.44 6.91L18.36 6.91Q18.46 6.91 18.46 7.01L18.46 7.01L18.48 9.72Q18.48 9.82 18.38 9.82L18.38 9.82L13.44 9.82L13.44 14.02L18.38 14.02Q18.48 14.02 18.48 14.14L18.48 14.14L18.48 16.87Q18.48 16.97 18.38 16.97L18.38 16.97ZM24.65 17.21L24.65 17.21Q23.33 17.21 22.26 16.55Q21.19 15.89 20.57 14.78Q19.94 13.68 19.94 12.31L19.94 12.31L19.97 4.82Q19.97 3.50 20.58 2.41Q21.19 1.32 22.26 0.66Q23.33 0 24.65 0L24.65 0Q25.97 0 27.02 0.65Q28.08 1.30 28.70 2.39Q29.33 3.48 29.33 4.82L29.33 4.82L29.33 5.93Q29.33 6.02 29.23 6.02L29.23 6.02L26.54 6.02Q26.45 6.02 26.45 5.93L26.45 5.93L26.45 4.82Q26.45 4.03 25.93 3.46Q25.42 2.88 24.65 2.88L24.65 2.88Q23.78 2.88 23.33 3.47Q22.87 4.06 22.87 4.82L22.87 4.82L22.87 12.31Q22.87 13.20 23.39 13.75Q23.90 14.30 24.65 14.30L24.65 14.30Q25.42 14.30 25.93 13.69Q26.45 13.08 26.45 12.31L26.45 12.31L26.45 11.21Q26.45 11.11 26.54 11.11L26.54 11.11L29.26 11.11Q29.35 11.11 29.35 11.21L29.35 11.21L29.35 12.31Q29.35 13.68 28.72 14.78Q28.08 15.89 27.02 16.55Q25.97 17.21 24.65 17.21ZM33.91 16.97L31.20 16.97Q31.10 16.97 31.10 16.85L31.10 16.85L31.13 0.36Q31.13 0.26 31.25 0.26L31.25 0.26L33.91 0.26Q34.03 0.26 34.03 0.36L34.03 0.36L34.01 6.89L37.61 6.89L37.61 0.36Q37.61 0.26 37.70 0.26L37.70 0.26L40.37 0.26Q40.49 0.26 40.49 0.36L40.49 0.36L40.54 16.85Q40.54 16.97 40.42 16.97L40.42 16.97L37.73 16.97Q37.61 16.97 37.61 16.85L37.61 16.85L37.61 9.79L34.01 9.79L34.01 16.85Q34.01 16.97 33.91 16.97L33.91 16.97ZM47.33 10.03L42.70 10.03Q42.58 10.03 42.58 9.94L42.58 9.94L42.58 7.32Q42.58 7.22 42.70 7.22L42.70 7.22L47.33 7.22Q47.45 7.22 47.45 7.32L47.45 7.32L47.45 9.94Q47.45 10.03 47.33 10.03L47.33 10.03ZM57.62 16.97L49.87 16.97Q49.78 16.97 49.78 16.85L49.78 16.85L49.80 0.38Q49.80 0.26 49.92 0.26L49.92 0.26L52.58 0.26Q52.70 0.26 52.70 0.38L52.70 0.38L52.68 14.02L57.62 14.02Q57.74 14.02 57.74 14.14L57.74 14.14L57.74 16.85Q57.74 16.97 57.62 16.97L57.62 16.97ZM58.49 16.85L58.49 16.85L61.46 0.36Q61.49 0.26 61.58 0.26L61.58 0.26L65.06 0.26Q65.16 0.26 65.18 0.36L65.18 0.36L68.04 16.85Q68.06 16.97 67.94 16.97L67.94 16.97L65.28 16.97Q65.18 16.97 65.16 16.85L65.16 16.85L64.90 15.10L61.63 15.10L61.37 16.85Q61.34 16.97 61.25 16.97L61.25 16.97L58.58 16.97Q58.49 16.97 58.49 16.85ZM63.19 5.78L62.11 12.53L64.42 12.53L63.43 5.78L63.29 4.90L63.19 5.78ZM73.94 16.97L69.65 16.97Q69.55 16.97 69.55 16.85L69.55 16.85L69.60 0.36Q69.60 0.26 69.70 0.26L69.70 0.26L74.30 0.26Q75.67 0.26 76.75 0.92Q77.83 1.58 78.46 2.66Q79.08 3.74 79.08 5.02L79.08 5.02Q79.08 6.05 78.61 6.94Q78.14 7.82 77.50 8.38L77.50 8.38Q78.19 9.07 78.58 9.98Q78.96 10.90 78.96 11.90L78.96 11.90Q78.96 13.30 78.29 14.45Q77.62 15.60 76.48 16.28Q75.34 16.97 73.94 16.97L73.94 16.97ZM72.48 3.12L72.48 6.89L74.30 6.89Q75.14 6.89 75.66 6.30Q76.18 5.71 76.18 5.02L76.18 5.02Q76.18 4.25 75.62 3.68Q75.07 3.12 74.30 3.12L74.30 3.12L72.48 3.12ZM72.48 9.79L72.46 14.04L73.94 14.04Q74.81 14.04 75.43 13.40Q76.06 12.77 76.06 11.90L76.06 11.90Q76.06 11.04 75.43 10.42Q74.81 9.79 73.94 9.79L73.94 9.79L72.48 9.79Z" transform="translate(28.706, 9.516)"></path></svg>